<svg width="82" height="28" viewBox="0 0 82 28" fill="none" xmlns="http://www.w3.org/2000/svg">
<path d="M0 5.79188C0 4.84307 0.714617 4.10669 1.6865 4.10669C2.67267 4.10669 3.41587 4.84307 3.41587 5.79188C3.41587 6.72652 2.67267 7.4629 1.6865 7.4629C0.714617 7.4629 0 6.72652 0 5.79188ZM0.385893 9.47379H3.00139V21.4825H0.385893V9.47379Z" fill="white"/>
<path d="M16.1074 9.47379V20.8169C16.1074 23.9182 13.7206 26.0141 10.2333 26.0141C7.38912 26.0141 5.15951 24.513 4.77362 22.318L7.2319 21.9073C7.37482 23.0969 8.64684 23.8899 10.2333 23.8899C12.177 23.8899 13.5348 22.7428 13.5348 21.0718V19.6132C12.9345 20.5195 11.5196 21.1426 9.93315 21.1426C6.33148 21.1426 4.25909 18.6927 4.25909 15.2091C4.25909 11.7254 6.33148 9.27553 9.89027 9.27553C11.4338 9.27553 12.8202 9.91278 13.5205 10.8474V9.45962H16.1074V9.47379ZM13.692 15.2091C13.692 12.9858 12.3486 11.5413 10.3048 11.5413C8.23236 11.5413 6.88888 12.9999 6.88888 15.2091C6.88888 17.4182 8.23236 18.8768 10.3048 18.8768C12.3343 18.8768 13.692 17.4324 13.692 15.2091Z" fill="white"/>
<path d="M17.7512 9.47379H20.3667V11.4705C21.1813 10.1818 22.582 9.27553 24.3542 9.27553C26.9268 9.27553 28.7277 10.9607 28.7277 13.5664V21.4825H26.1122V14.1612C26.1122 12.6601 25.1689 11.6121 23.6396 11.6121C21.5958 11.6121 20.3667 13.3256 20.3667 16.2145V21.4825H17.7512V9.47379Z" fill="white"/>
<path d="M29.9853 5.79188C29.9853 4.84307 30.6999 4.10669 31.6718 4.10669C32.6579 4.10669 33.4011 4.84307 33.4011 5.79188C33.4011 6.72652 32.6579 7.4629 31.6718 7.4629C30.7142 7.4629 29.9853 6.72652 29.9853 5.79188ZM30.3712 9.47379H32.9866V21.4825H30.3712V9.47379Z" fill="white"/>
<path d="M40.0899 21.6666C37.8032 21.6666 36.1024 20.4204 36.1024 17.6873V11.6829H33.9871V9.4738H36.1024V5.89101H38.7179V9.45963H41.8479V11.6829H38.7179V17.5457C38.7179 18.7352 39.3896 19.3583 40.3758 19.3583C40.8331 19.3583 41.3905 19.2875 41.8479 19.0751L42.0194 21.3834C41.4334 21.5675 40.7617 21.6666 40.0899 21.6666Z" fill="white"/>
<path d="M42.877 5.79188C42.877 4.84307 43.5916 4.10669 44.5635 4.10669C45.5497 4.10669 46.2929 4.84307 46.2929 5.79188C46.2929 6.72652 45.5497 7.4629 44.5635 7.4629C43.6059 7.4629 42.877 6.72652 42.877 5.79188ZM43.2629 9.47379H45.8784V21.4825H43.2629V9.47379Z" fill="white"/>
<path d="M47.1647 15.4781C47.1647 11.8812 49.7659 9.27553 53.4248 9.27553C57.055 9.27553 59.6848 11.867 59.6848 15.4781C59.6848 19.0893 57.055 21.6666 53.4105 21.6666C49.7659 21.6666 47.1647 19.0751 47.1647 15.4781ZM57.0264 15.4781C57.0264 13.1699 55.5543 11.5413 53.4248 11.5413C51.2666 11.5413 49.8231 13.1557 49.8231 15.4781C49.8231 17.7864 51.2666 19.415 53.4248 19.415C55.5543 19.4008 57.0264 17.7864 57.0264 15.4781Z" fill="white"/>
<path d="M60.7281 9.47379H63.3437V11.4705C64.1583 10.1818 65.559 9.27553 67.3312 9.27553C69.9038 9.27553 71.7047 10.9607 71.7047 13.5664V21.4825H69.0892V14.1612C69.0892 12.6601 68.1459 11.6121 66.6166 11.6121C64.5728 11.6121 63.3437 13.3256 63.3437 16.2145V21.4825H60.7281V9.47379Z" fill="white"/>
<path d="M74.6629 11.6264C74.6629 11.6405 74.6629 11.6688 74.6629 11.683H75.6205C75.6205 11.6688 75.6205 11.6405 75.6205 11.6264C75.6205 8.69499 78.0216 6.3159 80.9801 6.3159C80.9944 6.3159 81.023 6.3159 81.0373 6.3159V5.3671C81.023 5.3671 80.9944 5.3671 80.9801 5.3671C78.0216 5.3671 75.6205 2.98802 75.6205 0.0566449C75.6205 0.0424837 75.6205 0.0141612 75.6205 0H74.6629C74.6629 0.0141612 74.6629 0.0424837 74.6629 0.0566449C74.6629 2.98802 72.2618 5.3671 69.3033 5.3671C69.289 5.3671 69.2604 5.3671 69.2461 5.3671V6.3159C69.2604 6.3159 69.289 6.3159 69.3033 6.3159C72.2618 6.3159 74.6629 8.69499 74.6629 11.6264Z" fill="#F4502A"/>
</svg>
